<svg width="1440" height="213" viewBox="0 0 1440 213" fill="none" xmlns="http://www.w3.org/2000/svg">
<rect width="1440" height="213" fill="#6278F7"/>
<path d="M688.068 115.46C686.354 115.46 684.82 115.076 683.458 114.298C682.104 113.521 681.032 112.456 680.253 111.093C679.473 109.731 679.078 108.185 679.078 106.465C679.078 104.745 679.473 103.173 680.253 101.836C681.032 100.5 682.095 99.4436 683.441 98.6664C684.786 97.8891 686.329 97.5049 688.068 97.5049C689.808 97.5049 691.316 97.8891 692.679 98.6489C694.033 99.4087 695.096 100.465 695.867 101.819C696.638 103.173 697.024 104.718 697.024 106.465C697.024 108.212 696.638 109.757 695.867 111.111C695.096 112.465 694.033 113.521 692.679 114.298C691.325 115.076 689.782 115.46 688.068 115.46ZM688.068 112.674C689.174 112.674 690.168 112.421 691.051 111.914C691.933 111.408 692.619 110.683 693.116 109.74C693.613 108.797 693.862 107.714 693.862 106.474C693.862 105.234 693.613 104.125 693.116 103.208C692.619 102.291 691.925 101.574 691.051 101.068C690.168 100.561 689.174 100.308 688.068 100.308C686.963 100.308 685.977 100.561 685.103 101.068C684.238 101.574 683.543 102.291 683.021 103.208C682.498 104.125 682.241 105.216 682.241 106.474C682.241 107.731 682.498 108.805 683.021 109.74C683.543 110.683 684.238 111.408 685.103 111.914C685.969 112.421 686.963 112.674 688.068 112.674Z" fill="white"/>
<path d="M702.397 115.259V97.6708H705.397V102.448L705.105 101.251C705.585 100.037 706.382 99.103 707.513 98.4655C708.645 97.828 710.033 97.5049 711.678 97.5049V100.588C711.55 100.57 711.421 100.553 711.301 100.553H710.959C709.287 100.553 707.959 101.059 706.982 102.081C706.005 103.103 705.517 104.57 705.517 106.491V115.25H702.389L702.397 115.259Z" fill="white"/>
<path d="M723.565 114.534C721.894 114.534 720.403 114.176 719.083 113.46C717.763 112.744 716.726 111.74 715.955 110.456C715.183 109.172 714.798 107.688 714.798 106.011C714.798 104.334 715.183 102.823 715.955 101.548C716.726 100.273 717.772 99.2865 719.083 98.5791C720.394 97.8717 721.885 97.5137 723.565 97.5137C725.039 97.5137 726.384 97.8193 727.601 98.4219C728.818 99.0332 729.787 99.9677 730.515 101.225C731.244 102.483 731.603 104.081 731.603 106.002C731.603 107.923 731.244 109.487 730.515 110.744C729.787 112.002 728.818 112.954 727.601 113.582C726.384 114.211 725.039 114.526 723.565 114.526V114.534ZM723.959 121.905C722.374 121.905 720.84 121.678 719.348 121.224C717.857 120.77 716.649 120.123 715.715 119.285L717.215 116.831C718.02 117.538 719.006 118.097 720.18 118.508C721.354 118.918 722.579 119.119 723.856 119.119C725.896 119.119 727.396 118.63 728.347 117.661C729.298 116.691 729.778 115.207 729.778 113.216V109.495L730.104 106.011L729.941 102.491V97.6796H732.906V112.875C732.906 115.975 732.143 118.255 730.626 119.713C729.11 121.171 726.881 121.905 723.951 121.905H723.959ZM723.925 111.748C725.073 111.748 726.093 111.504 726.984 111.015C727.876 110.526 728.578 109.853 729.084 108.989C729.598 108.124 729.847 107.129 729.847 106.002C729.847 104.876 729.59 103.88 729.084 103.015C728.578 102.151 727.876 101.487 726.984 101.007C726.093 100.535 725.073 100.291 723.925 100.291C722.776 100.291 721.748 100.527 720.848 101.007C719.948 101.478 719.237 102.151 718.731 103.015C718.226 103.88 717.969 104.876 717.969 106.002C717.969 107.129 718.226 108.124 718.731 108.989C719.246 109.853 719.948 110.526 720.848 111.015C721.748 111.504 722.776 111.748 723.925 111.748Z" fill="white"/>
<path d="M642.211 87.2262C642.425 87.6629 642.862 87.9423 643.342 87.9423C643.822 87.9423 644.259 87.6629 644.473 87.2262L649.564 76.8689C649.761 76.4671 649.735 75.9956 649.504 75.6113C649.272 75.2271 648.861 75 648.424 75H638.269C637.832 75 637.42 75.2358 637.189 75.6113C636.957 75.9956 636.94 76.4671 637.129 76.8689L642.211 87.2262ZM646.376 77.585L643.351 83.7592L640.325 77.585H646.376ZM643.351 112.971C645.039 112.971 646.65 112.29 647.841 111.076C649.032 109.862 649.701 108.212 649.701 106.5C649.701 104.788 649.032 103.138 647.841 101.924C646.65 100.71 645.03 100.029 643.351 100.029C641.671 100.029 640.051 100.71 638.86 101.924C637.669 103.138 637 104.788 637 106.5C637 108.212 637.669 109.862 638.86 111.076C640.051 112.29 641.662 112.971 643.351 112.971ZM643.351 102.614C644.362 102.614 645.33 103.024 646.05 103.749C646.761 104.474 647.164 105.47 647.164 106.5C647.164 107.53 646.761 108.517 646.05 109.251C645.339 109.976 644.362 110.386 643.351 110.386C642.339 110.386 641.371 109.976 640.651 109.251C639.94 108.526 639.537 107.53 639.537 106.5C639.537 105.47 639.94 104.483 640.651 103.749C641.362 103.024 642.339 102.614 643.351 102.614ZM638.269 138H648.433C649.135 138 649.701 137.424 649.701 136.708V126.35C649.701 125.634 649.135 125.058 648.433 125.058H638.269C637.566 125.058 637 125.634 637 126.35V136.708C637 137.424 637.566 138 638.269 138ZM639.537 127.643H647.164V135.415H639.537V127.643ZM659.865 130.236V107.792H652.666C651.963 107.792 651.398 107.216 651.398 106.5C651.398 105.784 651.963 105.208 652.666 105.208H659.865V82.7637H652.666C651.963 82.7637 651.398 82.1873 651.398 81.4712C651.398 80.7551 651.963 80.1787 652.666 80.1787H661.133C661.836 80.1787 662.401 80.7551 662.401 81.4712V105.208H669.6C670.303 105.208 670.869 105.784 670.869 106.5C670.869 107.216 670.303 107.792 669.6 107.792H662.401V131.529C662.401 132.245 661.836 132.821 661.133 132.821H652.666C651.963 132.821 651.398 132.245 651.398 131.529C651.398 130.813 651.963 130.236 652.666 130.236H659.865Z" fill="white"/>
<circle cx="932.5" cy="69.5" r="43.5" stroke="white" stroke-width="2"/>
<path d="M436.812 107.642L526.319 83.6586L502.336 173.166L436.812 107.642Z" stroke="#95FFD4" stroke-width="2"/>
<path d="M36.7609 173.5L74 109L111.239 173.5H36.7609Z" stroke="#95FFD4" stroke-width="2"/>
<circle cx="1400.5" cy="177.5" r="54.5" stroke="#95FFD4" stroke-width="2"/>
</svg>
